<svg xmlns="http://www.w3.org/2000/svg" width="280" height="30" fill="none"><path fill="#202020" d="M0 0h280v30H0z"/><path fill="#606060" d="M0 0h36v30H0z"/><path fill="silver" d="M0 0h2v2H0V0Z"/><path fill="#606060" d="M18 2H6V0h12v2ZM32 2h-2V0h2v2Z"/><path fill="gray" d="M2 30H0V2h2v28ZM30 2H18V0h12v2ZM36 2h-4V0h4v2Z"/><path fill="#202020" d="M6 10h2v2H6z"/><path fill="#404040" d="M18 6h-2V4h-2v2h2v2h-2v2h2v12h-2v4h2v4H2V12h2v-2H2V2h16v4ZM20 30h-2V20h2v10ZM24 30h-2v-2h2v2ZM32 28h-4v-2h4v2ZM36 28h-2v-2h-2v-2h2v-2h2v6ZM26 20h-2v-2h2v2ZM36 20h-2v-2h2v2ZM36 12h-2v-2h2v2ZM28 8h-2V6h2v2ZM36 8h-4V6h4v2ZM36 4h-8V2h8v2Z"/><path fill="silver" d="M38 0h2v2h-2z"/><path fill="#202020" d="M36 0h2v2h-2z"/><path fill="gray" d="M38 2h2v28h-2z"/><path fill="#202020" d="M36 2h2v28h-2z"/><path fill="#fff" fill-rule="evenodd" d="m8 8 7.135 3.465v6.985L8 14.985V8ZM22.325 8l7.079 3.465-7.08 3.52V8Z" clip-rule="evenodd" opacity=".55"/><path fill="#fff" fill-rule="evenodd" d="m22.325 8-7.19 3.465v6.985l7.19-3.465V8Z" clip-rule="evenodd"/><path fill="#fff" fill-rule="evenodd" d="m29.404 11.465-7.08 3.52v6.984l7.08-3.52v-6.984Z" clip-rule="evenodd"/><path fill="red" d="M108 12h-4v-2h4v2ZM244 12h-4v-2h4v2Z"/><path fill="#430000" d="M50 12h10v-2h4v2h10v10H46V12h2v-2h2v2ZM90 10h2v2h-2v6h2v2h-2v2H78v-4h-2v-6h2V8h12v2Z"/><path fill="#430000" fill-rule="evenodd" d="M118 12h2v6h-2v-4h-4v8h-8v-8h-4V8h16v4Zm-14 0h4v8h4v-8h4v-2h-12v2Z" clip-rule="evenodd"/><path fill="#430000" d="M130 22h-8v-2h8v2Z"/><path fill="#430000" fill-rule="evenodd" d="M156 10h2V8h32v8h-2v-6h-4v10h-2v2h-8v-4h-2v-8h-4v6h-4v-6h-4v8h-2v2h-2v2h-14V8h14v2Zm20 10h4V10h-4v10Zm-20-4h2v-2h-2v2Z" clip-rule="evenodd"/><path fill="#430000" d="M170 22h-8v-2h8v2ZM206 14h2v2h-2v2h-2v-4h-4v6h10v2h-26v-2h12v-2h-6v-2h8v-4h8v2Z"/><path fill="#430000" fill-rule="evenodd" d="M222 10h2V8h30v4h2v6h-2v-4h-4v8h-8v-8h-4v8h-14v-2h4v-2h2v-6h-2v-2h-4v2h-2v2h-2v-4h-4v10h4v-4h2v2h2v2h-2v2h-8v-4h-2v-6h2V8h8v2Zm10 10h4V10h-4v10Zm8-8h4v8h4v-8h4v-2h-12v2Z" clip-rule="evenodd"/><path fill="#430000" d="M270 22h-12v-2h10v-2h-4v-2h4v-2h-4v-2h4v-2h-10V8h12v14ZM122 20h-2v-2h2v2ZM132 20h-2v-2h2v2ZM162 20h-2v-2h2v2ZM172 20h-2v-2h2v2ZM212 20h-2v-2h2v2ZM258 20h-2v-2h2v2ZM94 18h-2v-6h2v6ZM134 18h-2v-6h2v6ZM228 18h-2v-2h2v2ZM128 16h-4v-2h4v2ZM226 16h-2v-2h2v2ZM228 14h-2v-2h2v2ZM122 12h-2v-2h2v2ZM132 12h-2v-2h2v2ZM212 12h-2v-2h2v2ZM258 12h-2v-2h2v2ZM130 10h-8V8h8v2ZM210 10h-12V8h12v2Z"/><path fill="#4F0000" d="M76 20h-2v-2h2v2ZM76 12h-2v-2h2v2ZM80 12h-2v-2h2v2ZM200 12h-2v-2h2v2ZM60 10H50V8h10v2ZM74 10H62V8h12v2Z"/><path fill="#730000" d="M72 18h-2v-2h2v2ZM88 18h-2v-2h2v2ZM208 18h-2v-2h2v2ZM72 14h-2v-2h2v2ZM88 14h-2v-2h2v2ZM208 14h-2v-2h2v2Z"/><path fill="#B30000" d="M76 16h-2v-2h2v2ZM92 16h-2v-2h2v2ZM150 16h-2v-2h2v2ZM212 16h-2v-2h2v2ZM58 14h-2v-2h2v2ZM74 14h-2v-2h2v2ZM90 14h-2v-2h2v2ZM162 14h-2v-2h2v2ZM210 14h-2v-2h2v2ZM60 12h-2v-2h2v2ZM146 12h-2v-2h2v2ZM172 12h-2v-2h2v2ZM228 12h-2v-2h2v2Z"/><path fill="#EF0000" d="M70 20h-2v-2h2v2ZM86 20h-2v-2h2v2ZM126 20h-2v-2h2v2ZM206 20h-2v-2h2v2ZM70 12h-2v-2h2v2ZM86 12h-2v-2h2v2ZM112 12h-4v-2h4v2ZM128 12h-4v-2h4v2ZM150 12h-2v-2h2v2ZM154 12h-2v-2h2v2ZM180 12h-2v-2h2v2ZM206 12h-2v-2h2v2ZM220 12h-2v-2h2v2ZM226 12h-2v-2h2v2ZM236 12h-2v-2h2v2ZM248 12h-4v-2h4v2Z"/><path fill="#7F0000" d="M124 20h-2v-2h2v2ZM130 20h-2v-2h2v2ZM156 20h-2v-2h2v2ZM164 20h-2v-2h2v2ZM170 20h-2v-2h2v2ZM186 20h-2v-2h2v2ZM122 18h-2v-2h2v2ZM132 18h-2v-2h2v2ZM152 18h-2v-2h2v2ZM162 18h-2v-2h2v2ZM172 18h-2v-2h2v2ZM258 18h-2v-2h2v2ZM50 14h-2v-2h2v2ZM122 14h-2v-2h2v2ZM132 14h-2v-2h2v2ZM152 14h-2v-2h2v2ZM124 12h-2v-2h2v2ZM130 12h-2v-2h2v2Z"/><path fill="#BF0000" d="M110 20h-2v-8h2v8ZM148 18h-2v2h-2v-4h2v-2h2v4ZM246 20h-2v-8h2v8ZM264 20h-2v-2h2v2ZM164 18h-2v-6h2v6ZM170 18h-2v-6h2v6ZM188 18h-2v-6h2v6ZM260 18h-2v-2h2v2ZM56 16h-4v-2h4v2ZM68 16h-4v-2h4v2ZM84 16h-4v-2h4v2ZM124 16h-2v-2h2v2ZM130 16h-2v-4h2v4ZM154 16h-4v-2h4v2ZM204 16h-4v-2h4v2ZM266 16h-2v-2h2v2ZM262 12h-2v-2h2v2Z"/><path fill="#CB0000" d="M50 20h-2v-6h2v6ZM58 20h-2v-6h2v6ZM66 20h-2v-4h2v4ZM72 20h-2v-2h2v2ZM82 20h-2v-4h2v4ZM88 20h-2v-2h2v2ZM128 20h-2v-2h2v2ZM148 20h-2v-2h2v2ZM154 20h-2v-2h2v2ZM202 20h-2v-4h2v4ZM208 20h-2v-2h2v2ZM266 20h-2v-2h2v2ZM74 18h-2v-4h2v4ZM90 18h-2v-4h2v4ZM210 18h-2v-4h2v4ZM224 16h-4v-2h4v2ZM264 16h-2v-2h2v2ZM52 14h-2v-2h2v2ZM220 14h-2v-2h2v2ZM72 12h-2v-2h2v2ZM88 12h-2v-2h2v2ZM116 12h-4v-2h4v2ZM170 12h-2v-2h2v2ZM186 12h-2v-2h2v2ZM208 12h-2v-2h2v2ZM252 12h-4v-2h4v2ZM264 12h-2v-2h2v2Z"/><path fill="#9B0000" d="M188 20h-2v-2h2v2ZM226 20h-2v-2h2v2ZM186 18h-2v-6h2v6ZM224 18h-2v-2h2v2ZM122 16h-2v-2h2v2ZM132 16h-2v-2h2v2ZM226 14h-2v-2h2v2ZM66 12h-2v-2h2v2ZM82 12h-2v-2h2v2ZM202 12h-2v-2h2v2ZM268 12h-2v-2h2v2Z"/><path fill="#A70000" d="M52 20h-2v-6h2v6ZM168 20h-4v-2h4v2ZM178 20h-2V10h2v10ZM218 20h-2V10h2v10ZM234 20h-2V10h2v10ZM260 20h-2v-2h2v2ZM268 20h-2v-2h2v2ZM130 18h-2v-2h2v2ZM156 18h-2v-2h2v2ZM146 16h-2v-2h2v2ZM162 16h-2v-2h2v2ZM172 16h-2v-4h2v4ZM258 16h-2v-2h2v2ZM52 12h-2v-2h2v2ZM162 12h-2v-2h2v2Z"/><path fill="#8B0000" d="M74 20h-2v-2h2v2ZM90 20h-2v-2h2v2ZM210 20h-2v-2h2v2ZM76 18h-2v-2h2v2ZM92 18h-2v-2h2v2ZM128 18h-4v-2h4v2ZM190 18h-2v-2h2v2ZM212 18h-2v-2h2v2ZM264 18h-2v-2h2v2ZM268 16h-2v-2h2v2ZM76 14h-2v-2h2v2ZM92 14h-2v-2h2v2ZM128 14h-4v-2h4v2ZM156 14h-2v-4h2v4ZM212 14h-2v-2h2v2ZM258 14h-2v-2h2v2ZM264 14h-2v-2h2v2ZM74 12h-2v-2h2v2ZM90 12h-2v-2h2v2ZM210 12h-2v-2h2v2ZM260 12h-2v-2h2v2Z"/><path fill="#D70000" d="M60 20h-2v-8h2v8ZM112 20h-2v-2h2v2ZM180 20h-2v-2h2v2ZM196 20h-8v-2h8v2ZM220 20h-2v-2h2v2ZM228 20h-2v-2h2v2ZM236 20h-2v-2h2v2ZM248 20h-2v-2h2v2ZM262 20h-2v-6h-2v-2h4v8ZM124 18h-2v-2h2v2ZM154 18h-2v-2h2v2ZM168 18h-4v-2h4v2ZM226 18h-2v-2h2v2ZM112 16h-2v-2h2v2ZM180 16h-2v-2h2v2ZM236 16h-2v-2h2v2ZM248 16h-2v-2h2v2ZM124 14h-2v-2h2v2ZM154 14h-2v-2h2v2ZM148 12h-2v-2h2v2ZM266 12h-2v-2h2v2Z"/><path fill="#E30000" d="M68 20h-2v-4h2v4ZM84 20h-2v-4h2v4ZM152 20h-4v-2h4v2ZM204 20h-2v-4h2v4ZM112 18h-2v-2h2v2ZM180 18h-2v-2h2v2ZM220 18h-2v-4h2v4ZM236 18h-2v-2h2v2ZM248 18h-2v-2h2v2ZM260 16h-2v-2h2v2ZM112 14h-2v-2h2v2ZM180 14h-2v-2h2v2ZM224 14h-2v-2h2v2ZM236 14h-2v-2h2v2ZM248 14h-2v-2h2v2ZM58 12h-6v-2h6v2ZM68 12h-2v-2h2v2ZM84 12h-2v-2h2v2ZM152 12h-2v-2h2v2ZM164 12h-2v-2h2v2ZM188 12h-2v-2h2v2ZM204 12h-2v-2h2v2Z"/></svg>
